<svg xmlns="http://www.w3.org/2000/svg" viewBox="0 0 100 100" fill="none">
  <!-- Top-Left Card (Light Green) -->
  <path
    d="M 47 41 H 33 Q 27 41 27 35 V 27 Q 27 21 33 21 H 41 Q 47 21 47 27 Z"
    fill="#27b875"
  />
  <circle cx="37" cy="26" r="2.5" fill="#ffffff" />
  
  <!-- Bottom-Left Card (Light Green) -->
  <path
    d="M 47 47 V 61 Q 47 67 41 67 H 33 Q 27 67 27 61 V 53 Q 27 47 33 47 Z"
    fill="#27b875"
  />
  <circle cx="37" cy="52" r="2.5" fill="#ffffff" />
  
  <!-- Top-Right Card (Dark Green) -->
  <path
    d="M 53 41 V 27 Q 53 21 59 21 H 67 Q 73 21 73 27 V 35 Q 73 41 67 41 Z"
    fill="#167d4e"
  />
  <circle cx="63" cy="26" r="2.5" fill="#ffffff" />
  
  <!-- Bottom-Right Card (Dark Green) -->
  <path
    d="M 53 47 H 67 Q 73 47 73 53 V 61 Q 73 67 67 67 H 59 Q 53 67 53 61 Z"
    fill="#167d4e"
  />
  <circle cx="63" cy="52" r="2.5" fill="#ffffff" />
</svg>